<?xml version="1.0" encoding="utf-8"?>
<!-- Generator: Adobe Illustrator 24.0.0, SVG Export Plug-In . SVG Version: 6.00 Build 0)  -->
<svg version="1.1" id="Laag_1" xmlns="http://www.w3.org/2000/svg" xmlns:xlink="http://www.w3.org/1999/xlink" x="0px" y="0px"
	 viewBox="0 0 855.66 196.27" style="enable-background:new 0 0 855.66 196.27;" xml:space="preserve">
<style type="text/css">
	.st0{fill:#EE7385;}
	.st1{fill:#FFFFFF;}
</style>
<path class="st0" d="M524.98,159.35c-18.02,0-36.04,0.03-54.05-0.01c-7.05-0.02-7.95-1.55-4.65-7.97
	c17.79-34.58,35.6-69.15,53.5-103.67c0.87-1.69,2.7-3.93,4.15-3.97c1.5-0.05,3.65,1.96,4.53,3.6
	c18.73,34.98,37.35,70.02,55.89,105.09c2.65,5.01,1.29,6.88-4.73,6.91C561.4,159.39,543.19,159.35,524.98,159.35z M522.7,123.68
	c0.96,0,1.91,0,2.87,0c1.7-12.05,3.69-24.08,4.97-36.18c0.55-5.18-3-8.45-7.4-8.4c-4.26,0.05-7.67,3.5-7.24,8.67
	c0.56,6.67,1.92,13.28,3.18,19.87C520.1,113.03,521.47,118.34,522.7,123.68z M524.55,147.36c4.44-0.48,7.22-2.76,7.14-7.41
	c-0.08-4.63-3.06-7.28-7.4-7.22c-4.35,0.05-7.28,2.85-7.22,7.42C517.14,144.73,520,147.01,524.55,147.36z"/>
<path class="st0" d="M313.14,153.54c-23.67,0.71-50.91-17.9-50.88-50.94c0.03-33.93,28.38-51.48,51.51-50.97
	c27.88,0.62,50.64,22.87,50.81,50.73C364.76,130.56,341.63,153.57,313.14,153.54z M303.46,120.93c-2.66-4.1-4.73-7.35-6.86-10.56
	c-7.54-11.39-4.96-11.71-15.93-1.64c-2.81,2.58-2.74,4.55-0.09,7.19c6.71,6.69,13.34,13.48,19.8,20.42
	c2.74,2.94,4.69,3.08,7.51,0.03c14.15-15.37,28.48-30.58,42.69-45.91c0.98-1.06,2.36-3.34,2.01-3.77c-2.77-3.38-5.76-6.66-9.17-9.36
	c-0.46-0.37-3.89,2.36-5.44,4.1C326.59,94.3,315.35,107.29,303.46,120.93z"/>
<path class="st0" d="M705.81,102.44c0.18-29.05,22.64-50.91,52.06-50.68c27.83,0.22,50.13,23.46,49.87,51.94
	c-0.26,27.86-23.42,50.05-52.01,49.82C727.76,153.3,705.63,130.66,705.81,102.44z M754.04,135.53c-1.5-10.87,3.7-13.33,11.18-14.85
	c8.51-1.73,16.44-5.63,19.6-14.63c3.81-10.85,0.98-21-4.93-30.4c-1-1.6-2.97-2.59-4.48-3.86c-0.45,0.28-0.91,0.56-1.36,0.84
	c0.56,2.27,0.97,4.6,1.71,6.8c5.04,14.88,0.2,23.15-15.04,25.97c-3.82,0.71-5.87-0.29-6.53-4.2c-0.49-2.88-1.29-5.71-2.17-9.54
	c-10.9,7.59-20.82,14.5-31.66,22.05C731.6,121,741.88,127.66,754.04,135.53z"/>
<path class="st0" d="M153.08,102.92c-0.08,28.41-22.5,50.64-51.03,50.61c-28.65-0.04-50.81-22.53-50.7-51.49
	C51.44,73.8,74,51.68,102.63,51.76C130.95,51.84,153.16,74.36,153.08,102.92z M70.36,102.04c-0.01,9.14-0.01,9.14,9,9.14
	c3.29,0,6.59,0.14,9.88-0.03c3.28-0.18,4.52,1.16,4.4,4.42c-0.17,4.65,0.08,9.31-0.07,13.95c-0.11,3.32,0.85,4.99,4.55,4.94
	c15.58-0.2,12.37,1.44,12.59-11.94c0.19-11.34,0.04-11.19,11.39-11.38c13.35-0.23,11.72,3,11.92-12.61c0.05-3.7-1.65-4.65-4.96-4.54
	c-4.64,0.15-9.3-0.1-13.95,0.07c-3.27,0.12-4.53-1.15-4.41-4.41c0.17-4.65,0.12-9.3-0.02-13.95c-0.04-1.45-0.6-4.09-1.09-4.13
	c-4.77-0.39-9.63-0.72-14.33-0.08c-0.86,0.12-1.57,4.64-1.6,7.14C93.49,94,93.56,94,78.17,94.03
	C70.37,94.05,70.37,94.05,70.36,102.04z"/>
<path class="st0" d="M675.95,103.89c-9.97,6.49-19.01,12.37-28.75,18.71c0-12.74,0-24.59,0-37.45
	C656.84,91.43,665.97,97.39,675.95,103.89z"/>
<path class="st0" d="M199.48,85.34c9.64,6.28,18.63,12.14,28.41,18.52c-9.74,6.36-18.72,12.23-28.41,18.56
	C199.48,109.92,199.48,98.13,199.48,85.34z"/>
<path class="st0" d="M643.03,103.86c-9.76,6.37-18.72,12.22-28.39,18.54c0-12.52,0-24.27,0-37.04
	C624.15,91.56,633.21,97.46,643.03,103.86z"/>
<path class="st0" d="M439.02,103.87c-9.76,6.36-18.69,12.19-28.5,18.59c0-12.82,0-24.41,0-37.16
	C420.28,91.66,429.22,97.49,439.02,103.87z"/>
<path class="st1" d="M522.7,123.68c-1.22-5.34-2.6-10.66-3.63-16.04c-1.26-6.59-2.62-13.2-3.18-19.87
	c-0.43-5.17,2.98-8.63,7.24-8.67c4.41-0.05,7.95,3.23,7.4,8.4c-1.28,12.1-3.27,24.12-4.97,36.18
	C524.61,123.68,523.65,123.68,522.7,123.68z"/>
<path class="st1" d="M524.55,147.36c-4.55-0.35-7.41-2.64-7.48-7.2c-0.07-4.58,2.86-7.37,7.22-7.42c4.34-0.05,7.32,2.59,7.4,7.22
	C531.77,144.6,528.99,146.88,524.55,147.36z"/>
<path class="st1" d="M303.46,120.93c11.89-13.64,23.14-26.63,34.51-39.5c1.54-1.75,4.98-4.47,5.44-4.1c3.4,2.7,6.39,5.98,9.17,9.36
	c0.36,0.44-1.03,2.72-2.01,3.77c-14.21,15.33-28.53,30.54-42.69,45.91c-2.81,3.05-4.77,2.91-7.51-0.03
	c-6.46-6.94-13.08-13.73-19.8-20.42c-2.65-2.64-2.72-4.61,0.09-7.19c10.97-10.07,8.39-9.76,15.93,1.64
	C298.73,113.58,300.8,116.82,303.46,120.93z"/>
<path class="st1" d="M754.04,135.53c-12.15-7.87-22.43-14.53-33.69-21.82c10.85-7.55,20.76-14.46,31.66-22.05
	c0.89,3.82,1.68,6.65,2.17,9.54c0.67,3.91,2.71,4.91,6.53,4.2c15.23-2.82,20.07-11.09,15.04-25.97c-0.75-2.21-1.15-4.53-1.71-6.8
	c0.45-0.28,0.91-0.56,1.36-0.84c1.52,1.27,3.48,2.27,4.48,3.86c5.91,9.4,8.74,19.55,4.93,30.4c-3.16,9.01-11.09,12.9-19.6,14.63
	C757.74,122.2,752.53,124.66,754.04,135.53z"/>
<path class="st1" d="M70.36,102.04c0.01-7.99,0.01-7.99,7.81-8.01C93.56,94,93.49,94,93.67,78.63c0.03-2.5,0.74-7.02,1.6-7.14
	c4.7-0.63,9.56-0.31,14.33,0.08c0.49,0.04,1.04,2.68,1.09,4.13c0.14,4.65,0.19,9.31,0.02,13.95c-0.12,3.27,1.13,4.54,4.41,4.41
	c4.64-0.17,9.3,0.08,13.95-0.07c3.3-0.11,5,0.83,4.96,4.54c-0.2,15.61,1.43,12.38-11.92,12.61c-11.34,0.19-11.2,0.04-11.39,11.38
	c-0.23,13.37,2.99,11.73-12.59,11.94c-3.69,0.05-4.66-1.63-4.55-4.94c0.16-4.65-0.1-9.31,0.07-13.95c0.12-3.26-1.12-4.59-4.4-4.42
	c-3.28,0.18-6.59,0.04-9.88,0.03C70.35,111.18,70.35,111.18,70.36,102.04z"/>
</svg>
